<svg version="1.2" xmlns="http://www.w3.org/2000/svg" viewBox="0 0 79 26" width="79" height="26">
	<style>
		.s0 { fill: #000000 } 
		.s1 { fill: #ff7700 } 
	</style>
	<g>
		<path class="s0" d="m63.24 7.14q-0.35-0.73-0.8-1.42-0.46-0.68-1-1.3-0.53-0.61-1.15-1.15-0.62-0.54-1.3-0.99-0.58-0.37-1.18-0.69-0.61-0.31-1.24-0.56-0.64-0.26-1.29-0.44-0.66-0.19-1.33-0.31c-1.33-0.25-0.96-0.29-5.43-0.27l-4.04 0.01-0.84 0.84-0.02 12.74 0.84 0.82h3.09l0.83-0.82v-9.02l0.88 0.01q0.48-0.04 0.96-0.05 0.47 0 0.95 0.02 0.48 0.03 0.95 0.08 0.48 0.06 0.94 0.15 0.47 0.09 0.91 0.24 0.45 0.14 0.88 0.33 0.43 0.19 0.84 0.43 0.41 0.23 0.79 0.51 0.18 0.14 0.35 0.29 0.17 0.15 0.33 0.31 0.17 0.15 0.32 0.32 0.16 0.16 0.3 0.34 0.31 0.39 0.57 0.82 0.26 0.43 0.46 0.89 0.2 0.46 0.34 0.94 0.14 0.48 0.22 0.97 0.05 0.34 0.07 0.67 0.02 0.34 0.02 0.67 0 0.34-0.02 0.68-0.02 0.33-0.07 0.67-0.08 0.49-0.22 0.97-0.14 0.48-0.34 0.94-0.2 0.46-0.46 0.89-0.26 0.43-0.57 0.82-0.14 0.17-0.3 0.34-0.16 0.16-0.32 0.32-0.16 0.16-0.33 0.31-0.17 0.14-0.35 0.28-0.38 0.28-0.79 0.52-0.41 0.24-0.84 0.43-0.43 0.19-0.88 0.34-0.44 0.14-0.91 0.24l-0.17 0.03c-0.7 0.15 0.39 0.16-7.2 0.16h-2.06v4.59h0.77c8.26 0 7.77-0.02 8.69-0.14q0.47-0.06 0.94-0.16 0.46-0.09 0.92-0.21 0.46-0.12 0.91-0.27 0.45-0.14 0.89-0.31 0.9-0.37 1.73-0.87 0.83-0.5 1.58-1.12 0.74-0.62 1.38-1.35 0.64-0.73 1.16-1.55 0.37-0.59 0.67-1.21 0.29-0.63 0.51-1.29 0.22-0.66 0.36-1.34 0.13-0.69 0.18-1.38 0.03-0.35 0.04-0.7 0.01-0.36 0-0.71 0-0.35-0.01-0.71-0.02-0.35-0.05-0.7-0.04-0.51-0.14-1.01-0.09-0.49-0.22-0.98-0.13-0.49-0.31-0.96-0.17-0.48-0.39-0.94z"/>
		<path class="s0" d="m77.57 23.35l-0.02-0.06c-0.03-0.07-0.05-0.12-3.18-5.21-1.11-1.8-2.02-3.28-2.55-4.16q0.14-0.05 0.28-0.1 0.15-0.05 0.29-0.1 0.14-0.06 0.28-0.12 0.14-0.06 0.27-0.12 0.71-0.33 1.33-0.82 0.62-0.49 1.11-1.11 0.48-0.62 0.82-1.33 0.33-0.71 0.49-1.49 0.08-0.44 0.12-0.88 0.04-0.45 0.02-0.9-0.01-0.45-0.07-0.89-0.06-0.45-0.17-0.88-0.24-0.88-0.71-1.67-0.46-0.78-1.13-1.41-0.67-0.62-1.48-1.05-0.81-0.41-1.7-0.6-0.36-0.09-0.73-0.16-0.36-0.07-0.73-0.12-0.37-0.05-0.74-0.09-0.36-0.03-0.74-0.04c-0.06 0-7.31-0.1-7.7 0.04q-0.07 0.03-0.13 0.06-0.07 0.04-0.13 0.09-0.06 0.04-0.12 0.09-0.06 0.05-0.11 0.11l-0.42 0.4v23.38l0.84 0.82h3.09l0.83-0.82v-9.69l1.9 0.01 2.84 4.78c3.09 5.21 3.14 5.28 3.16 5.31l0.3 0.41 1.87 0.01h0.64q0.15 0.01 0.29 0.02 0.15 0 0.3-0.01 0.15-0.01 0.3-0.02 0.15-0.02 0.29-0.05 0.13-0.04 0.25-0.11 0.11-0.06 0.21-0.15 0.1-0.09 0.17-0.21 0.08-0.11 0.12-0.23 0.07-0.1 0.11-0.22 0.04-0.11 0.06-0.23 0.02-0.12 0.01-0.24 0-0.13-0.03-0.24zm-5.52-15.89q0 0.25-0.05 0.49-0.06 0.25-0.17 0.47-0.11 0.23-0.27 0.42-0.16 0.19-0.37 0.34-0.19 0.13-0.39 0.23-0.2 0.11-0.42 0.19-0.21 0.08-0.43 0.15-0.22 0.06-0.44 0.11-0.41 0.06-0.82 0.1-0.41 0.04-0.83 0.06-0.41 0.02-0.82 0.02-0.42 0-0.83-0.03h-1.42v-5.51h1.46c1.74 0 2.29 0.01 2.65 0.05q0.26 0.03 0.53 0.07 0.26 0.05 0.52 0.12 0.26 0.08 0.51 0.18 0.25 0.09 0.5 0.22 0.29 0.17 0.52 0.42 0.23 0.26 0.38 0.57 0.14 0.31 0.19 0.65 0.05 0.34 0 0.68z"/>
		<path class="s1" d="m33.59 0.08l-0.02-0.01q-0.21-0.04-0.42-0.06-0.21-0.02-0.41-0.03-0.21 0-0.42 0-0.21 0.01-0.42 0.03c-1.46 0.02-1.62 0.02-1.88 0.29-0.2 0.19-0.32 0.62-2.83 9.42-0.73 2.56-1.39 4.88-1.86 6.52-0.47-1.6-1.14-3.87-1.9-6.48-2.69-9.23-2.69-9.23-2.88-9.42-0.3-0.32-0.34-0.32-2.26-0.32-1.94 0-1.94 0-2.24 0.3-0.21 0.21-0.21 0.21-2.9 9.44-0.78 2.7-1.44 4.94-1.9 6.51-0.46-1.6-1.11-3.86-1.87-6.51-2.41-8.36-2.65-9.15-2.79-9.36l-0.01-0.01c-0.28-0.36-0.4-0.37-2-0.37-1.49-0.01-1.58 0.02-1.71 0.08q-0.18 0.09-0.33 0.22-0.15 0.12-0.26 0.29-0.11 0.16-0.19 0.34-0.07 0.19-0.09 0.38c0 0.15 0 0.22 3.4 11.69 3.43 11.55 3.43 11.55 3.61 11.73 0.28 0.28 0.36 0.28 2.21 0.28 1.93 0 1.99 0 2.27-0.36l0.01-0.01 0.01-0.01c0.14-0.21 0.38-0.99 2.84-9.38 0.67-2.27 1.39-4.75 1.92-6.51 0.49 1.66 1.18 4.02 1.94 6.62 2.69 9.15 2.7 9.16 2.85 9.34l0.06 0.05c0.28 0.26 0.35 0.26 2.19 0.26 1.83 0 1.9 0 2.21-0.28 0.19-0.19 0.19-0.19 3.59-11.66 3.36-11.34 3.39-11.53 3.4-11.61q0.01-0.12 0-0.24-0.01-0.11-0.04-0.23-0.03-0.11-0.09-0.21-0.06-0.11-0.13-0.2-0.06-0.09-0.13-0.17-0.08-0.08-0.16-0.15-0.09-0.06-0.18-0.11-0.09-0.06-0.19-0.09z"/>
		<path class="s1" d="m43.63 20.47l-8.93 0.01v-19.64l-0.84-0.82-1.5-0.01c-1.32-0.01-1.38 0.01-1.52 0.07q-0.07 0.03-0.13 0.06-0.07 0.04-0.13 0.09-0.07 0.04-0.12 0.09-0.06 0.05-0.11 0.11l-0.42 0.4v23.39l0.88 0.83h12.81z"/>
	</g>
</svg>