<svg
  xmlns="http://www.w3.org/2000/svg"
  viewBox="0 0 546 356"
  width="2000"
  height="1304"
  fill="currentColor"
>
  <g>
    <path fill-rule="evenodd" d="m247.94 253.13c14.7 36.75-2.94 79.41-39.71 95.58-36.77 14.7-79.41-2.94-94.12-39.71l-86.76-207.35c-14.7-38.23 2.95-80.88 39.7-95.58 36.76-14.71 79.42 2.94 94.13 39.71zm180.87 1.48c14.72 36.76-2.94 79.41-39.7 94.12-36.78 16.17-79.41-1.48-94.13-38.23l-86.76-208.83c-16.17-36.77 1.47-79.41 39.72-94.12 36.75-16.18 79.42 1.46 94.11 38.23zm110.29-160.3c14.72 38.23-2.94 79.41-39.7 94.12-38.25 16.17-79.41-2.95-95.6-39.72l-19.11-47.05c-3.55-8.88-5.3-18.37-5.15-27.93 0.15-9.56 2.21-18.99 6.04-27.75 3.83-8.76 9.36-16.67 16.28-23.27 6.91-6.6 15.07-11.75 24-15.17 36.78-16.17 79.41 2.94 94.14 39.71z"/>
    <path fill-rule="evenodd" d="m365.83 273.93l49.87-20.65c6.12-2.54 13.14 0.37 15.68 6.49l20.66 49.87c2.53 6.12-0.38 13.14-6.5 15.68l-49.87 20.66c-6.12 2.53-13.14-0.38-15.68-6.5l-20.65-49.87c-2.54-6.12 0.37-13.14 6.49-15.68z"/>
    <path fill-rule="evenodd" d="m9.83 29.93l49.87-20.65c6.12-2.54 13.14 0.37 15.68 6.49l20.66 49.87c2.53 6.12-0.38 13.14-6.5 15.68l-49.87 20.66c-6.12 2.53-13.14-0.38-15.68-6.5l-20.65-49.87c-2.54-6.12 0.37-13.14 6.49-15.68z"/>
  </g>
</svg>
